<svg version="1.1" xmlns="http://www.w3.org/2000/svg" xmlns:xlink="http://www.w3.org/1999/xlink" width="422.3500061035156" height="47.95000076293945"><defs></defs><g transform="translate(-213.26596069335938,25.580001831054688)"><rect fill="rgb(255,255,255)" stroke="none" x="0" y="0" width="422.3500061035156" height="47.95000076293945" fill-opacity="0" transform="translate(213.26596069335938,-25.580001831054688)"></rect><g transform="translate(212.19595336914062,24) rotate(0,0,0) translate(-212.19595336914062,-24) matrix(1,0,0,1,212.19595336914062,24)"><path fill="rgb(0,0,0)" fill-opacity="1" d="M18.49-35.52L18.49-35.52Q18.49-27.17 19.12-21.07L19.12-21.07Q19.12-20.64 19.74-15.19Q20.36-9.74 20.36-8.40Q20.36-7.06 19.62-5.88Q18.88-4.70 17.48-4.70L17.48-4.70Q14.03-4.70 10.16-8.09Q6.30-11.47 3.68-16.68Q1.07-21.89 1.07-26.64L1.07-26.64Q1.07-32.78 3.23-37.68Q5.39-42.58 9.90-45.60Q14.41-48.62 20.65-48.62L20.65-48.62Q26.65-48.62 29.53-43.34L29.53-43.34Q30.97-40.75 30.97-38.04Q30.97-35.33 30.37-32.78Q29.77-30.24 28.76-28.39Q27.76-26.54 26.72-25.06Q25.69-23.57 24.54-22.51L24.54-22.51Q22.57-20.74 21.97-20.40Q21.37-20.06 21.04-20.06L21.04-20.06Q20.22-20.06 20.22-21.07L20.22-21.07Q20.22-21.60 20.94-21.94L20.94-21.94Q26.65-25.97 26.65-32.16L26.65-32.16Q26.65-35.33 25.64-37.68Q24.64-40.03 23.48-41.35Q22.33-42.67 20.39-43.56Q18.44-44.45 16.00-44.45L16.00-44.45Q10.24-44.45 6.95-40.30Q3.66-36.14 3.66-30.14L3.66-30.14Q3.66-25.87 5.82-21.41Q7.98-16.94 11.17-14.09Q14.36-11.23 17.29-11.23L17.29-11.23Q17.92-11.23 18.06-12.53L18.06-12.53Q18.01-13.49 17.53-16.61L17.53-16.61Q16.43-24.34 16.43-34.51L16.43-34.51Q16.43-35.47 16.88-36.14Q17.34-36.82 18.20-36.82L18.20-36.82Q18.49-36.82 18.49-35.52ZM27.52-7.34L27.52-7.34Q27.71-7.44 29.20-8.45Q30.68-9.46 32.08-10.34Q33.47-11.23 35.20-12.02Q36.92-12.82 37.74-12.82Q38.56-12.82 38.94-12.34L38.94-12.34Q39.37-11.66 40.00-10.27Q40.62-8.88 40.62-8.59Q40.62-8.30 40.57-8.16L40.57-8.16Q40.43-7.78 40.28-7.68L40.28-7.68Q39.71-7.39 39.44-7.25Q39.18-7.10 36.83-5.66L36.83-5.66Q30.30-1.63 29.63-1.63L29.63-1.63Q28.67-1.63 27.71-3.62Q26.75-5.62 26.75-6.26Q26.75-6.91 27.52-7.34ZM33.47-24.05L33.47-24.05L33.95-13.78Q33.95-12.86 33.37-12.07Q32.80-11.28 31.84-11.28L31.84-11.28Q31.40-11.28 31.40-11.95L31.40-11.95Q31.40-19.25 31.04-25.30Q30.68-31.34 30.68-39.26L30.68-39.26Q30.68-40.03 31.02-40.22L31.02-40.22Q31.98-40.85 32.39-40.85Q32.80-40.85 32.89-40.75L32.89-40.75Q33.08-40.42 33.08-37.80Q33.08-35.18 33.47-24.05ZM24.16-38.06L24.97-42.91Q25.02-43.25 27.66-44.64L27.66-44.64Q34.96-48.48 36.54-48.48L36.54-48.48Q37.02-48.48 37.09-48.29Q37.16-48.10 37.50-47.35Q37.84-46.61 38.03-46.01Q38.22-45.41 38.22-44.93Q38.22-44.45 37.55-44.11L37.55-44.11Q37.40-44.02 35.63-43.22Q33.85-42.43 32.03-41.57L32.03-41.57Q27.37-39.46 26.17-38.52Q24.97-37.58 24.56-37.58Q24.16-37.58 24.16-38.06L24.16-38.06ZM59.24-15.84Q55.93-15.84 53.92-18.46Q51.90-21.07 51.90-24.17Q51.90-27.26 53.46-31.13Q55.02-34.99 58.00-38.14Q60.97-41.28 64.38-41.81L64.38-41.81Q64.33-41.86 64.33-42.05L64.33-42.05Q64.33-43.25 63.78-43.70Q63.23-44.16 61.88-44.16L61.88-44.16Q58.76-44.16 55.31-40.68Q51.85-37.20 49.57-32.21Q47.29-27.22 47.29-22.99L47.29-22.99Q47.29-19.20 48.92-15.84L48.92-15.84Q49.74-14.11 51.42-13.06Q53.10-12.00 55.40-12.00L55.40-12.00Q59.53-12.00 63.04-16.66L63.04-16.66Q61.12-15.84 59.24-15.84L59.24-15.84ZM62.51-20.21L62.51-20.21Q64.00-20.21 65.53-20.69L65.53-20.69Q68.51-26.74 68.51-31.92L68.51-31.92Q68.51-34.75 67.24-36.82Q65.96-38.88 63.56-38.88L63.56-38.88Q60.49-38.88 58.04-35.45Q55.60-32.02 55.60-28.15Q55.60-24.29 57.88-22.25Q60.16-20.21 62.51-20.21ZM65.24-47.90Q66.20-47.90 67.09-47.14Q67.98-46.37 67.98-45.38Q67.98-44.40 67.31-43.37Q66.64-42.34 65.72-41.90L65.72-41.90Q68.17-41.90 69.52-39.91Q70.86-37.92 70.86-35.18L70.86-35.18Q70.86-29.04 67.88-21.89L67.88-21.89Q69.47-23.04 70.81-24.67L70.81-24.67Q71.24-25.25 71.41-25.25Q71.58-25.25 71.77-25.03Q71.96-24.82 71.96-24.58L71.96-24.58Q71.92-23.81 70.24-21.89Q68.56-19.97 66.30-18.38L66.30-18.38Q63.23-12.48 59.10-8.74Q54.97-4.99 50.89-4.99Q46.81-4.99 44.65-8.11Q42.49-11.23 42.49-15.98Q42.49-20.74 44.05-25.54Q45.61-30.34 48.11-34.25Q50.60-38.16 53.60-41.30Q56.60-44.45 59.68-46.18Q62.75-47.90 65.24-47.90L65.24-47.90ZM90.59-9.65L90.59-9.65L89.72-9.50Q87.04-9.50 85.38-13.42Q83.72-17.33 83.72-23.40Q83.72-29.47 85.07-36.24L85.07-36.24Q85.07-36.62 84.59-36.62L84.59-36.62Q83.39-36.53 83.05-35.88Q82.72-35.23 81.95-32.59Q81.18-29.95 80.29-25.15Q79.40-20.35 79.40-15.46Q79.40-10.56 80.63-7.68Q81.85-4.80 84.88-4.80L84.88-4.80Q86.89-4.80 89.03-6.12Q91.16-7.44 91.16-8.93L91.16-8.93Q91.16-9.65 90.59-9.65ZM69.56-38.06L69.56-38.06Q74.84-40.90 83.63-43.30Q92.41-45.70 99.04-46.03L99.04-46.03Q100.09-45.89 100.09-44.95Q100.09-44.02 99.54-42.53Q98.99-41.04 98.12-40.99L98.12-40.99Q93.61-40.70 83.32-38.02Q73.02-35.33 68.89-32.35L68.89-32.35Q68.60-32.21 68.36-32.21L68.36-32.21Q67.93-32.21 67.93-33.02Q67.93-33.84 68.58-35.86Q69.23-37.87 69.56-38.06ZM104.99-14.69L105.04-15.89L104.99-21.94Q104.99-28.27 105.28-31.49Q105.56-34.70 105.56-34.90L105.56-34.90Q106.09-36.58 107.58-36.58L107.58-36.58Q107.92-36.58 107.92-36.19L107.92-36.19Q107.92-36.14 107.82-35.42L107.82-35.42Q106.96-28.70 106.96-17.66L106.96-17.66Q106.96-16.32 107.34-11.52Q107.72-6.72 107.68-5.93Q107.63-5.14 106.91-5.14L106.91-5.14Q105.37-5.28 103.52-7.54Q101.68-9.79 100.09-13.25Q98.51-16.70 97.45-21.31Q96.40-25.92 96.40-30.34L96.40-30.34Q96.40-34.75 98.22-39.55L98.22-39.55Q99.28-42.24 100.74-44.45Q102.20-46.66 104.60-48.12Q107.00-49.58 109.88-49.58L109.88-49.58Q115.21-49.58 118.55-44.95Q121.88-40.32 121.88-34.42L121.88-34.42Q121.88-27.50 117.42-24.00L117.42-24.00Q115.02-22.08 111.61-21.70L111.61-21.70Q111.28-21.60 111.28-21.31L111.28-21.31Q111.28-20.35 113.08-17.83Q114.88-15.31 117.92-12.84Q120.97-10.37 123.71-10.13L123.71-10.13Q125.48-10.13 126.78-11.52L126.78-11.52Q127.26-12.10 127.55-12.10L127.55-12.10Q128.41-11.57 128.41-10.99L128.41-10.99Q128.41-10.37 127.21-9.10Q126.01-7.82 124.91-7.01L124.91-7.01Q122.36-5.14 119.17-5.14Q115.98-5.14 113.70-7.06Q111.42-8.98 110.22-12.10L110.22-12.10Q107.87-18.19 107.87-24.96L107.87-24.96Q107.87-25.68 108.40-25.68L108.40-25.68Q108.59-25.63 109.07-25.25L109.07-25.25Q110.46-24.14 112.33-23.95L112.33-23.95Q114.49-23.95 115.62-25.80Q116.75-27.65 116.75-30.70Q116.75-33.74 115.64-36.94Q114.54-40.13 112.04-42.53Q109.55-44.93 106.28-44.93L106.28-44.93Q103.74-44.93 101.17-41.14Q98.60-37.34 98.60-32.06L98.60-32.06Q98.60-28.03 100.19-23.11Q101.77-18.19 104.80-14.30L104.80-14.30L104.84-14.30Q104.99-14.30 104.99-14.69L104.99-14.69ZM150.52-20.78Q150.16-20.78 149.89-21.02Q149.63-21.26 149.63-21.60Q149.63-21.94 150.76-23.18Q151.88-24.43 153.42-25.85Q154.96-27.26 157.07-28.22Q159.18-29.18 161.34-29.23L161.34-29.23Q162.78-29.23 163.60-28.54Q164.41-27.84 164.41-26.93Q164.41-26.02 162.78-24.17Q161.15-22.32 159.90-22.32L159.90-22.32Q159.61-22.32 158.96-22.68Q158.32-23.04 157.67-23.04Q157.02-23.04 154.74-22.39Q152.46-21.74 151.67-21.26Q150.88-20.78 150.52-20.78ZM149.15-18.05L149.15-18.05L149.48-34.99Q149.39-35.23 149.20-35.23L149.20-35.23Q148.38-35.18 147.92-34.73Q147.47-34.27 147.47-33.79Q147.47-33.31 147.32-28.94L147.32-28.94Q146.80-15.84 146.80-11.14L146.80-11.14L146.84-7.01L146.84-6.29Q146.84-5.90 147.16-5.33Q147.47-4.75 148.02-4.75Q148.57-4.75 149.22-5.18Q149.87-5.62 149.87-6.31Q149.87-7.01 149.51-11.83Q149.15-16.66 149.15-18.05ZM164.99-40.22L164.99-40.22L162.49-40.46Q156.68-40.46 140.36-31.39L140.36-31.39Q139.88-31.15 139.72-31.15Q139.55-31.15 139.55-31.85Q139.55-32.54 140.17-34.80Q140.80-37.06 141.42-37.44L141.42-37.44Q156.78-46.66 167.15-46.66L167.15-46.66Q169.74-46.66 169.74-44.98L169.74-44.98Q169.74-43.87 168.04-42.05Q166.33-40.22 164.99-40.22ZM177.28-14.69L177.32-15.89L177.28-21.94Q177.28-28.27 177.56-31.49Q177.85-34.70 177.85-34.90L177.85-34.90Q178.38-36.58 179.87-36.58L179.87-36.58Q180.20-36.58 180.20-36.19L180.20-36.19Q180.20-36.14 180.11-35.42L180.11-35.42Q179.24-28.70 179.24-17.66L179.24-17.66Q179.24-16.32 179.63-11.52Q180.01-6.72 179.96-5.93Q179.92-5.14 179.20-5.14L179.20-5.14Q177.66-5.28 175.81-7.54Q173.96-9.79 172.38-13.25Q170.80-16.70 169.74-21.31Q168.68-25.92 168.68-30.34L168.68-30.34Q168.68-34.75 170.51-39.55L170.51-39.55Q171.56-42.24 173.03-44.45Q174.49-46.66 176.89-48.12Q179.29-49.58 182.17-49.58L182.17-49.58Q187.50-49.58 190.84-44.95Q194.17-40.32 194.17-34.42L194.17-34.42Q194.17-27.50 189.71-24.00L189.71-24.00Q187.31-22.08 183.90-21.70L183.90-21.70Q183.56-21.60 183.56-21.31L183.56-21.31Q183.56-20.35 185.36-17.83Q187.16-15.31 190.21-12.84Q193.26-10.37 196.00-10.13L196.00-10.13Q197.77-10.13 199.07-11.52L199.07-11.52Q199.55-12.10 199.84-12.10L199.84-12.10Q200.70-11.57 200.70-10.99L200.70-10.99Q200.70-10.37 199.50-9.10Q198.30-7.82 197.20-7.01L197.20-7.01Q194.65-5.14 191.46-5.14Q188.27-5.14 185.99-7.06Q183.71-8.98 182.51-12.10L182.51-12.10Q180.16-18.19 180.16-24.96L180.16-24.96Q180.16-25.68 180.68-25.68L180.68-25.68Q180.88-25.63 181.36-25.25L181.36-25.25Q182.75-24.14 184.62-23.95L184.62-23.95Q186.78-23.95 187.91-25.80Q189.04-27.65 189.04-30.70Q189.04-33.74 187.93-36.94Q186.83-40.13 184.33-42.53Q181.84-44.93 178.57-44.93L178.57-44.93Q176.03-44.93 173.46-41.14Q170.89-37.34 170.89-32.06L170.89-32.06Q170.89-28.03 172.48-23.11Q174.06-18.19 177.08-14.30L177.08-14.30L177.13-14.30Q177.28-14.30 177.28-14.69L177.28-14.69ZM227.63-43.34Q229.69-43.34 230.70-42.43Q231.71-41.52 231.71-40.06Q231.71-38.59 230.51-37.54Q229.31-36.48 228.59-36.48Q227.87-36.48 227.82-37.15L227.82-37.15Q227.72-38.30 226.31-39.31Q224.89-40.32 223.40-40.32L223.40-40.32Q219.61-40.32 215.68-36.72Q211.74-33.12 209.39-28.46Q207.04-23.81 207.04-20.59Q207.04-17.38 208.40-15.34Q209.77-13.30 212.41-13.30L212.41-13.30Q216.64-13.30 221.58-20.74L221.58-20.74Q223.88-24.14 226.24-30.72L226.24-30.72Q227.10-33.07 227.15-33.12L227.15-33.12Q227.53-34.13 228.40-34.13L228.40-34.13Q228.83-34.13 229.09-33.86Q229.36-33.60 229.36-33.24Q229.36-32.88 229.21-32.45L229.21-32.45Q227.82-27.36 227.82-22.73Q227.82-18.10 229.40-15.02Q230.99-11.95 233.63-11.95L233.63-11.95Q234.97-11.95 236.03-12.82L236.03-12.82Q236.36-13.10 236.70-13.10L236.70-13.10Q237.28-13.10 237.28-12.58L237.28-12.58Q237.28-9.94 234.16-7.66Q231.04-5.38 227.96-5.38L227.96-5.38Q223.02-5.38 223.02-12.19L223.02-12.19Q223.02-14.93 223.72-18.34Q224.41-21.74 224.41-21.86Q224.41-21.98 224.22-21.98Q224.03-21.98 223.79-21.55L223.79-21.55Q221.05-14.74 216.30-10.10Q211.55-5.47 207.56-5.47Q203.58-5.47 201.85-8.54L201.85-8.54Q200.65-10.61 200.65-13.63L200.65-13.63Q200.65-19.58 204.71-26.57Q208.76-33.55 215.17-38.45Q221.58-43.34 227.63-43.34L227.63-43.34ZM261.47-37.01L261.47-37.01Q261.13-37.01 260.92-37.22Q260.70-37.44 260.70-37.68Q260.70-37.92 260.94-38.35Q261.18-38.78 261.18-39.17L261.18-39.17Q261.18-40.27 260.05-40.78Q258.92-41.28 257.72-41.28L257.72-41.28Q254.17-41.28 250.31-38.88Q246.44-36.48 245.77-33.12L245.77-33.12Q246.01-31.10 247.76-29.35Q249.52-27.60 251.82-26.33Q254.12-25.06 256.38-23.76Q258.64-22.46 260.17-20.69Q261.71-18.91 261.71-17.06Q261.71-15.22 260.36-13.46Q259.02-11.71 257.70-10.51Q256.38-9.31 256.38-9.24Q256.38-9.17 256.52-9.17L256.52-9.17Q259.45-9.17 264.54-12.38L264.54-12.38L265.02-12.72Q265.36-12.91 265.52-12.91Q265.69-12.91 265.88-12.62Q266.08-12.34 266.08-12.00Q266.08-11.66 265.45-11.33L265.45-11.33Q262.67-8.69 255.06-6.29Q247.45-3.89 241.31-3.89L241.31-3.89Q232.91-3.89 232.91-8.78L232.91-8.78Q232.91-9.50 234.35-10.85L234.35-10.85Q236.56-12.86 237.04-12.86Q237.52-12.86 239.48-11.66Q241.45-10.46 244.43-9.26Q247.40-8.06 250.33-8.06Q253.26-8.06 254.82-9.89Q256.38-11.71 256.38-13.63Q256.38-15.55 254.75-17.09Q253.12-18.62 250.79-19.80Q248.46-20.98 246.11-22.22Q243.76-23.47 242.12-25.25Q240.49-27.02 240.49-29.14L240.49-29.14Q240.49-32.54 244.28-36.29Q248.08-40.03 252.97-42.34Q257.87-44.64 261.32-44.64L261.32-44.64Q265.64-44.64 265.64-41.76L265.64-41.76Q265.64-40.03 264.08-38.52Q262.52-37.01 261.47-37.01ZM281.20-13.97L281.20-13.97Q283.93-13.63 288.68-10.90Q293.44-8.16 295.09-8.16Q296.75-8.16 297.71-8.71Q298.67-9.26 299.12-9.82Q299.58-10.37 299.72-10.37L299.72-10.37Q300.11-10.37 300.40-9.74Q300.68-9.12 300.68-8.88L300.68-8.88Q300.68-6.86 297.16-4.97Q293.63-3.07 291.56-3.07Q289.50-3.07 286.93-4.08Q284.36-5.09 282.40-6.24L282.40-6.24Q277.07-9.46 275.84-9.46Q274.62-9.46 272.94-7.97Q271.26-6.48 269.75-4.99Q268.24-3.50 267.64-3.50Q267.04-3.50 266.60-3.98Q266.17-4.46 266.17-4.90Q266.17-5.33 267.40-6.65Q268.62-7.97 270.92-9.72Q273.23-11.47 275.53-12.53L275.53-12.53Q276.54-14.64 279.49-21.10Q282.44-27.55 282.49-27.62Q282.54-27.70 283.48-29.69Q284.41-31.68 284.75-32.35Q285.08-33.02 286.02-34.85Q286.96-36.67 287.53-37.63L287.53-37.63Q289.45-40.56 290.46-41.57L290.46-41.57Q290.46-41.71 290.32-41.71Q290.17-41.71 289.93-41.59Q289.69-41.47 287.24-40.42Q284.80-39.36 283.09-38.64Q281.39-37.92 278.63-36.79Q275.87-35.66 273.90-34.99L273.90-34.99Q268.76-33.26 266.75-33.26L266.75-33.26Q264.01-33.26 264.01-35.28L264.01-35.28Q264.01-36.05 264.73-36.77Q265.45-37.49 265.98-37.94Q266.51-38.40 267.04-38.78L267.04-38.78Q268.91-40.27 269.27-40.27Q269.63-40.27 269.92-40.03Q270.20-39.79 270.20-39.48Q270.20-39.17 269.48-38.59Q268.76-38.02 268.76-37.85Q268.76-37.68 269.15-37.68L269.15-37.68Q270.25-37.68 280.19-40.75L280.19-40.75Q292.81-44.64 294.06-45.50L294.06-45.50Q294.83-46.03 295.21-46.03Q295.60-46.03 295.84-45.53Q296.08-45.02 296.08-44.40Q296.08-43.78 295.55-43.58L295.55-43.58Q292.28-42.24 287.72-33.70L287.72-33.70Q285.42-29.38 278.46-13.58L278.46-13.58Q279.90-13.97 281.20-13.97ZM322.28-14.59Q323.15-15.50 323.68-15.50Q324.20-15.50 324.20-14.95Q324.20-14.40 323.82-14.02L323.82-14.02Q321.42-10.80 317.41-8.18Q313.40-5.57 309.25-5.57Q305.10-5.57 302.92-8.23Q300.73-10.90 300.73-15.31Q300.73-19.73 302.75-24.94Q304.76-30.14 308.00-34.63Q311.24-39.12 315.88-42.12Q320.51-45.12 325.26-45.12L325.26-45.12Q329.39-45.12 329.39-41.33L329.39-41.33Q329.39-38.54 327.32-34.85Q325.26-31.15 322.09-28.44Q318.92-25.73 316.24-25.73L316.24-25.73Q314.80-25.73 314.80-27.26L314.80-27.26Q314.80-28.42 316.14-30.14Q317.48-31.87 318.64-31.87L318.64-31.87Q319.26-31.87 319.12-30.77Q318.97-29.66 320.17-29.66L320.17-29.66Q321.90-29.66 323.41-32.30Q324.92-34.94 324.92-37.25L324.92-37.25Q324.92-42 320.99-42L320.99-42Q317.39-42 314.05-38.74Q310.72-35.47 308.77-30.79Q306.83-26.11 306.83-21.79Q306.83-17.47 308.92-14.86Q311.00-12.24 315.42-12.24L315.42-12.24Q317.29-12.24 319.02-12.86L319.02-12.86Q321.42-13.68 322.28-14.59ZM342.11-13.97L342.11-13.97Q344.84-13.63 349.60-10.90Q354.35-8.16 356.00-8.16Q357.66-8.16 358.62-8.71Q359.58-9.26 360.04-9.82Q360.49-10.37 360.64-10.37L360.64-10.37Q361.02-10.37 361.31-9.74Q361.60-9.12 361.60-8.88L361.60-8.88Q361.60-6.86 358.07-4.97Q354.54-3.07 352.48-3.07Q350.41-3.07 347.84-4.08Q345.28-5.09 343.31-6.24L343.31-6.24Q337.98-9.46 336.76-9.46Q335.53-9.46 333.85-7.97Q332.17-6.48 330.66-4.99Q329.15-3.50 328.55-3.50Q327.95-3.50 327.52-3.98Q327.08-4.46 327.08-4.90Q327.08-5.33 328.31-6.65Q329.53-7.97 331.84-9.72Q334.14-11.47 336.44-12.53L336.44-12.53Q337.45-14.64 340.40-21.10Q343.36-27.55 343.40-27.62Q343.45-27.70 344.39-29.69Q345.32-31.68 345.66-32.35Q346.00-33.02 346.93-34.85Q347.87-36.67 348.44-37.63L348.44-37.63Q350.36-40.56 351.37-41.57L351.37-41.57Q351.37-41.71 351.23-41.71Q351.08-41.71 350.84-41.59Q350.60-41.47 348.16-40.42Q345.71-39.36 344.00-38.64Q342.30-37.92 339.54-36.79Q336.78-35.66 334.81-34.99L334.81-34.99Q329.68-33.26 327.66-33.26L327.66-33.26Q324.92-33.26 324.92-35.28L324.92-35.28Q324.92-36.05 325.64-36.77Q326.36-37.49 326.89-37.94Q327.42-38.40 327.95-38.78L327.95-38.78Q329.82-40.27 330.18-40.27Q330.54-40.27 330.83-40.03Q331.12-39.79 331.12-39.48Q331.12-39.17 330.40-38.59Q329.68-38.02 329.68-37.85Q329.68-37.68 330.06-37.68L330.06-37.68Q331.16-37.68 341.10-40.75L341.10-40.75Q353.72-44.64 354.97-45.50L354.97-45.50Q355.74-46.03 356.12-46.03Q356.51-46.03 356.75-45.53Q356.99-45.02 356.99-44.40Q356.99-43.78 356.46-43.58L356.46-43.58Q353.20-42.24 348.64-33.70L348.64-33.70Q346.33-29.38 339.37-13.58L339.37-13.58Q340.81-13.97 342.11-13.97ZM388.67-43.34Q390.73-43.34 391.74-42.43Q392.75-41.52 392.75-40.06Q392.75-38.59 391.55-37.54Q390.35-36.48 389.63-36.48Q388.91-36.48 388.86-37.15L388.86-37.15Q388.76-38.30 387.35-39.31Q385.93-40.32 384.44-40.32L384.44-40.32Q380.65-40.32 376.72-36.72Q372.78-33.12 370.43-28.46Q368.08-23.81 368.08-20.59Q368.08-17.38 369.44-15.34Q370.81-13.30 373.45-13.30L373.45-13.30Q377.68-13.30 382.62-20.74L382.62-20.74Q384.92-24.14 387.28-30.72L387.28-30.72Q388.14-33.07 388.19-33.12L388.19-33.12Q388.57-34.13 389.44-34.13L389.44-34.13Q389.87-34.13 390.13-33.86Q390.40-33.60 390.40-33.24Q390.40-32.88 390.25-32.45L390.25-32.45Q388.86-27.36 388.86-22.73Q388.86-18.10 390.44-15.02Q392.03-11.95 394.67-11.95L394.67-11.95Q396.01-11.95 397.07-12.82L397.07-12.82Q397.40-13.10 397.74-13.10L397.74-13.10Q398.32-13.10 398.32-12.58L398.32-12.58Q398.32-9.94 395.20-7.66Q392.08-5.38 389.00-5.38L389.00-5.38Q384.06-5.38 384.06-12.19L384.06-12.19Q384.06-14.93 384.76-18.34Q385.45-21.74 385.45-21.86Q385.45-21.98 385.26-21.98Q385.07-21.98 384.83-21.55L384.83-21.55Q382.09-14.74 377.34-10.10Q372.59-5.47 368.60-5.47Q364.62-5.47 362.89-8.54L362.89-8.54Q361.69-10.61 361.69-13.63L361.69-13.63Q361.69-19.58 365.75-26.57Q369.80-33.55 376.21-38.45Q382.62-43.34 388.67-43.34L388.67-43.34ZM398.32-26.16L398.36-31.10Q398.36-35.66 399.18-41.90L399.18-41.90Q399.18-42.14 399.52-42.67L399.52-42.67Q400.14-43.30 401.15-43.44L401.15-43.44Q401.58-43.44 401.58-43.06L401.58-43.06Q400.62-37.97 400.62-28.22L400.62-28.22Q400.62-27.22 400.69-27.22Q400.76-27.22 400.98-27.53Q401.20-27.84 401.34-27.84L401.34-27.84Q402.06-27.84 402.11-27.50L402.11-27.50Q404.03-25.06 406.96-25.06L406.96-25.06Q409.12-25.06 410.87-26.06Q412.62-27.07 413.63-28.49Q414.64-29.90 415.31-31.58L415.31-31.58Q416.51-34.37 416.51-36.53Q416.51-38.69 415.48-40.46Q414.44-42.24 412.81-42.24L412.81-42.24Q412.57-42.24 412.26-42.02Q411.95-41.81 411.68-41.81Q411.42-41.81 411.08-42.02Q410.75-42.24 410.75-42.48L410.75-42.48Q410.75-43.58 412.72-45.24Q414.68-46.90 415.93-46.90L415.93-46.90Q418.43-46.90 419.68-45.29Q420.92-43.68 420.92-40.54Q420.92-37.39 419.20-33.41Q417.47-29.42 414.16-26.47Q410.84-23.52 406.96-23.52L406.96-23.52Q405.32-23.52 404.41-23.93Q403.50-24.34 403.36-24.34Q403.21-24.34 403.21-24.07Q403.21-23.81 403.40-23.23L403.40-23.23Q406.86-17.18 410.80-13.94Q414.73-10.70 418.62-10.70L418.62-10.70Q420.01-10.70 420.61-11.16Q421.21-11.62 421.55-11.95L421.55-11.95Q422.17-12.58 422.51-12.58Q422.84-12.58 423.13-12.14Q423.42-11.71 423.42-11.38L423.42-11.38Q423.42-9.70 420.42-7.58Q417.42-5.47 413.44-5.47L413.44-5.47Q409.16-5.47 406.81-7.82L406.81-7.82Q405.61-9.02 404.77-10.22Q403.93-11.42 403.26-13.27Q402.59-15.12 402.25-16.32Q401.92-17.52 401.48-19.49L401.48-19.49Q400.81-22.32 400.67-22.32Q400.52-22.32 400.52-21.94L400.52-21.94L400.48-17.71Q400.48-11.71 400.96-7.58L400.96-7.58Q400.96-7.30 400.40-6.74Q399.85-6.19 399.28-6.19Q398.70-6.19 398.70-7.20L398.70-7.20Q398.70-7.58 398.60-9.50L398.60-9.50Q398.32-15.26 398.32-19.68L398.32-19.68L398.32-26.16Z"></path></g></g></svg>