<svg xmlns="http://www.w3.org/2000/svg" xmlns:xlink="http://www.w3.org/1999/xlink" width="150" zoomAndPan="magnify" viewBox="0 0 112.5 37.5" height="50" preserveAspectRatio="xMidYMid meet" version="1.0"><defs><g/></defs><g fill="#000000" fill-opacity="1">
<g transform="translate(9.072136, 24.234156)">
<g><path d="M 37.796875 -9.796875 C 37.921875 -9.765625 38.019531 -9.710938 38.09375 -9.640625 C 38.164062 -9.566406 38.179688 -9.492188 38.140625 -9.421875 C 38.097656 -9.347656 38.046875 -9.300781 37.984375 -9.28125 C 37.929688 -9.269531 37.867188 -9.269531 37.796875 -9.28125 C 37.710938 -9.28125 37.628906 -9.285156 37.546875 -9.296875 C 36.304688 -9.335938 34.671875 -9.265625 32.640625 -9.078125 C 30.609375 -8.898438 28.96875 -8.726562 27.71875 -8.5625 C 26.757812 -8.4375 25.800781 -8.300781 24.84375 -8.15625 C 24.820312 -8.15625 24.796875 -8.144531 24.765625 -8.125 C 24.359375 -8.070312 23.992188 -7.925781 23.671875 -7.6875 C 22.453125 -6.851562 21.191406 -6.097656 19.890625 -5.421875 C 18.585938 -4.753906 17.257812 -4.128906 15.90625 -3.546875 C 13.71875 -2.578125 11.476562 -1.734375 9.1875 -1.015625 C 8.71875 -0.890625 8.375 -0.601562 8.15625 -0.15625 C 7.132812 1.863281 6.070312 3.84375 4.96875 5.78125 C 3.988281 7.507812 3.050781 9.257812 2.15625 11.03125 C 2.15625 11.039062 2.148438 11.050781 2.140625 11.0625 C 2.097656 11.144531 2.050781 11.21875 2 11.28125 C 1.90625 11.351562 1.796875 11.378906 1.671875 11.359375 C 1.609375 11.378906 1.539062 11.378906 1.46875 11.359375 C 1.332031 11.304688 1.265625 11.207031 1.265625 11.0625 C 1.273438 10.8125 1.351562 10.578125 1.5 10.359375 C 1.507812 10.347656 1.515625 10.332031 1.515625 10.3125 C 2.429688 8.675781 3.328125 7.039062 4.203125 5.40625 C 5.085938 3.769531 5.941406 2.109375 6.765625 0.421875 C 6.835938 0.273438 6.90625 0.132812 6.96875 0 C 7 -0.0703125 7.03125 -0.148438 7.0625 -0.234375 C 6.976562 -0.253906 6.90625 -0.269531 6.84375 -0.28125 C 6.707031 -0.257812 6.578125 -0.222656 6.453125 -0.171875 C 6.410156 -0.160156 6.367188 -0.144531 6.328125 -0.125 C 4.734375 0.320312 3.117188 0.707031 1.484375 1.03125 C 0.359375 1.238281 -0.773438 1.382812 -1.921875 1.46875 C -1.972656 1.476562 -2.023438 1.484375 -2.078125 1.484375 C -2.191406 1.492188 -2.304688 1.5 -2.421875 1.5 C -2.859375 1.5 -3.285156 1.429688 -3.703125 1.296875 C -4.015625 1.179688 -4.203125 1 -4.265625 0.75 C -4.328125 0.5 -4.253906 0.234375 -4.046875 -0.046875 C -3.753906 -0.378906 -3.414062 -0.648438 -3.03125 -0.859375 C -2.144531 -1.410156 -1.21875 -1.863281 -0.25 -2.21875 C 2.332031 -3.195312 4.953125 -4.054688 7.609375 -4.796875 C 7.753906 -4.835938 7.90625 -4.878906 8.0625 -4.921875 C 8.40625 -4.984375 8.722656 -5.082031 9.015625 -5.21875 C 9.316406 -5.351562 9.539062 -5.582031 9.6875 -5.90625 C 10.25 -7.195312 10.789062 -8.488281 11.3125 -9.78125 C 11.832031 -11.070312 12.3125 -12.390625 12.75 -13.734375 C 12.75 -13.742188 12.753906 -13.757812 12.765625 -13.78125 C 12.835938 -14.019531 12.929688 -14.242188 13.046875 -14.453125 C 13.085938 -14.523438 13.144531 -14.578125 13.21875 -14.609375 C 13.300781 -14.640625 13.378906 -14.644531 13.453125 -14.625 C 13.515625 -14.644531 13.578125 -14.644531 13.640625 -14.625 C 13.816406 -14.582031 13.914062 -14.472656 13.9375 -14.296875 C 13.9375 -13.941406 13.875 -13.597656 13.75 -13.265625 C 13.75 -13.253906 13.742188 -13.238281 13.734375 -13.21875 C 13.171875 -11.507812 12.539062 -9.828125 11.84375 -8.171875 C 11.664062 -7.710938 11.476562 -7.257812 11.28125 -6.8125 C 11.207031 -6.65625 11.140625 -6.492188 11.078125 -6.328125 C 10.992188 -6.117188 10.957031 -5.976562 10.96875 -5.90625 C 10.988281 -5.832031 11.039062 -5.796875 11.125 -5.796875 C 11.21875 -5.804688 11.328125 -5.832031 11.453125 -5.875 C 11.492188 -5.882812 11.539062 -5.894531 11.59375 -5.90625 C 12.09375 -6.039062 12.59375 -6.171875 13.09375 -6.296875 C 14.007812 -6.515625 14.929688 -6.738281 15.859375 -6.96875 C 18.109375 -7.507812 20.378906 -7.96875 22.671875 -8.34375 C 23.085938 -8.40625 23.445312 -8.5625 23.75 -8.8125 C 24.40625 -9.300781 25.050781 -9.878906 25.6875 -10.546875 C 26.320312 -11.210938 26.847656 -11.929688 27.265625 -12.703125 C 27.679688 -13.472656 27.867188 -14.265625 27.828125 -15.078125 C 27.785156 -15.890625 27.414062 -16.695312 26.71875 -17.5 C 26.257812 -17.96875 25.738281 -18.363281 25.15625 -18.6875 C 23.9375 -19.34375 22.46875 -19.828125 20.75 -20.140625 C 19.03125 -20.453125 17.191406 -20.613281 15.234375 -20.625 C 13.273438 -20.644531 11.3125 -20.546875 9.34375 -20.328125 C 7.375 -20.109375 5.53125 -19.804688 3.8125 -19.421875 C 2.101562 -19.035156 0.632812 -18.597656 -0.59375 -18.109375 C -1.65625 -17.691406 -2.664062 -17.171875 -3.625 -16.546875 C -4.019531 -16.304688 -4.382812 -16.046875 -4.71875 -15.765625 C -5.0625 -15.484375 -5.367188 -15.15625 -5.640625 -14.78125 C -5.742188 -14.625 -5.882812 -14.539062 -6.0625 -14.53125 C -6.09375 -14.53125 -6.132812 -14.53125 -6.1875 -14.53125 C -6.195312 -14.53125 -6.207031 -14.53125 -6.21875 -14.53125 C -6.28125 -14.53125 -6.34375 -14.535156 -6.40625 -14.546875 C -6.46875 -14.566406 -6.515625 -14.609375 -6.546875 -14.671875 C -6.566406 -14.710938 -6.578125 -14.757812 -6.578125 -14.8125 C -6.578125 -14.863281 -6.570312 -14.90625 -6.5625 -14.9375 C -6.476562 -15.144531 -6.359375 -15.328125 -6.203125 -15.484375 C -6.054688 -15.648438 -5.90625 -15.804688 -5.75 -15.953125 C -5.332031 -16.304688 -4.898438 -16.625 -4.453125 -16.90625 C -4.003906 -17.195312 -3.546875 -17.460938 -3.078125 -17.703125 C -1.867188 -18.347656 -0.328125 -18.925781 1.546875 -19.4375 C 3.429688 -19.957031 5.5 -20.375 7.75 -20.6875 C 10.007812 -21 12.28125 -21.164062 14.5625 -21.1875 C 16.84375 -21.21875 18.976562 -21.066406 20.96875 -20.734375 C 22.96875 -20.410156 24.671875 -19.859375 26.078125 -19.078125 C 26.710938 -18.734375 27.273438 -18.296875 27.765625 -17.765625 C 28.460938 -16.972656 28.859375 -16.191406 28.953125 -15.421875 C 29.054688 -14.660156 28.953125 -13.914062 28.640625 -13.1875 C 28.335938 -12.46875 27.914062 -11.78125 27.375 -11.125 C 26.832031 -10.46875 26.273438 -9.851562 25.703125 -9.28125 C 25.628906 -9.226562 25.5625 -9.15625 25.5 -9.0625 C 25.4375 -8.976562 25.410156 -8.90625 25.421875 -8.84375 C 25.429688 -8.789062 25.515625 -8.773438 25.671875 -8.796875 C 27.585938 -9.109375 29.492188 -9.34375 31.390625 -9.5 C 33.296875 -9.65625 35.210938 -9.765625 37.140625 -9.828125 C 37.203125 -9.828125 37.253906 -9.828125 37.296875 -9.828125 L 37.3125 -9.828125 C 37.476562 -9.828125 37.640625 -9.816406 37.796875 -9.796875 Z M 7.703125 -1.5 C 7.742188 -1.601562 7.820312 -1.75 7.9375 -1.9375 C 8.09375 -2.25 8.257812 -2.585938 8.4375 -2.953125 C 8.613281 -3.328125 8.738281 -3.65625 8.8125 -3.9375 C 8.894531 -4.21875 8.859375 -4.367188 8.703125 -4.390625 C 8.597656 -4.378906 8.5 -4.359375 8.40625 -4.328125 C 8.382812 -4.328125 8.359375 -4.320312 8.328125 -4.3125 C 7.960938 -4.195312 7.597656 -4.085938 7.234375 -3.984375 C 6.359375 -3.722656 5.476562 -3.453125 4.59375 -3.171875 C 4.550781 -3.160156 4.507812 -3.144531 4.46875 -3.125 C 2.882812 -2.644531 1.332031 -2.09375 -0.1875 -1.46875 C -0.96875 -1.144531 -1.703125 -0.753906 -2.390625 -0.296875 C -2.660156 -0.148438 -2.878906 0.046875 -3.046875 0.296875 C -3.117188 0.398438 -3.140625 0.492188 -3.109375 0.578125 C -3.078125 0.660156 -3.003906 0.726562 -2.890625 0.78125 C -2.648438 0.851562 -2.40625 0.890625 -2.15625 0.890625 C -1.9375 0.890625 -1.722656 0.878906 -1.515625 0.859375 C -1.503906 0.859375 -1.5 0.859375 -1.5 0.859375 C -0.363281 0.742188 0.75 0.5625 1.84375 0.3125 C 3.582031 -0.0703125 5.296875 -0.519531 6.984375 -1.03125 C 7.015625 -1.050781 7.035156 -1.0625 7.046875 -1.0625 C 7.179688 -1.09375 7.304688 -1.140625 7.421875 -1.203125 C 7.535156 -1.265625 7.628906 -1.363281 7.703125 -1.5 Z M 9.15625 -1.796875 C 10.175781 -2.066406 11.566406 -2.5625 13.328125 -3.28125 C 15.097656 -4.007812 16.796875 -4.773438 18.421875 -5.578125 C 20.054688 -6.378906 21.171875 -7.046875 21.765625 -7.578125 C 21.691406 -7.578125 21.625 -7.578125 21.5625 -7.578125 C 21.539062 -7.578125 21.523438 -7.578125 21.515625 -7.578125 C 17.929688 -6.859375 14.382812 -6.007812 10.875 -5.03125 C 10.5625 -4.945312 10.347656 -4.765625 10.234375 -4.484375 C 10.023438 -4.023438 9.816406 -3.570312 9.609375 -3.125 C 9.453125 -2.789062 9.289062 -2.453125 9.125 -2.109375 C 9.101562 -2.066406 9.085938 -2.015625 9.078125 -1.953125 C 9.078125 -1.898438 9.101562 -1.847656 9.15625 -1.796875 Z M 9.15625 -1.796875 "/></g></g></g>
<g fill="#000000" fill-opacity="1"><g transform="translate(30.858036, 24.234156)"><g><path d="M 3.078125 -3.265625 C 2.804688 -2.941406 2.484375 -2.640625 2.109375 -2.359375 C 1.734375 -2.085938 1.304688 -1.90625 0.828125 -1.8125 C 0.347656 -1.71875 -0.0195312 -1.753906 -0.28125 -1.921875 C -0.550781 -2.085938 -0.601562 -2.457031 -0.4375 -3.03125 C -0.226562 -3.613281 0.0507812 -4.175781 0.40625 -4.71875 C 0.488281 -4.820312 0.609375 -4.898438 0.765625 -4.953125 C 0.878906 -4.972656 0.976562 -4.953125 1.0625 -4.890625 C 1.15625 -4.828125 1.191406 -4.75 1.171875 -4.65625 C 1.085938 -4.46875 1 -4.28125 0.90625 -4.09375 C 0.8125 -3.90625 0.75 -3.78125 0.71875 -3.71875 C 0.539062 -3.382812 0.414062 -3.039062 0.34375 -2.6875 C 0.34375 -2.476562 0.617188 -2.460938 1.171875 -2.640625 C 1.722656 -2.828125 2.257812 -3.160156 2.78125 -3.640625 C 3.3125 -4.128906 3.5625 -4.269531 3.53125 -4.0625 C 3.507812 -3.863281 3.359375 -3.597656 3.078125 -3.265625 Z M 1.734375 -5.875 C 1.703125 -5.851562 1.644531 -5.828125 1.5625 -5.796875 C 1.488281 -5.773438 1.40625 -5.753906 1.3125 -5.734375 C 1.226562 -5.722656 1.160156 -5.738281 1.109375 -5.78125 C 1.054688 -5.820312 1.050781 -5.90625 1.09375 -6.03125 C 1.175781 -6.25 1.265625 -6.4375 1.359375 -6.59375 C 1.453125 -6.757812 1.566406 -6.941406 1.703125 -7.140625 C 1.796875 -7.234375 1.894531 -7.28125 2 -7.28125 C 2.113281 -7.289062 2.207031 -7.265625 2.28125 -7.203125 C 2.351562 -7.140625 2.375 -7.050781 2.34375 -6.9375 C 2.226562 -6.53125 2.023438 -6.175781 1.734375 -5.875 Z M 1.734375 -5.875 "/></g></g></g><g fill="#000000" fill-opacity="1"><g transform="translate(33.888172, 24.234156)"><g><path d="M 1.234375 -1.84375 L 1.21875 -1.84375 C 0.457031 -1.851562 -0.0351562 -2.019531 -0.265625 -2.34375 C -0.503906 -2.664062 -0.492188 -3.097656 -0.234375 -3.640625 C -0.0234375 -4.046875 0.242188 -4.40625 0.578125 -4.71875 C 0.691406 -4.8125 0.804688 -4.890625 0.921875 -4.953125 C 1.046875 -5.015625 1.1875 -5.046875 1.34375 -5.046875 C 1.425781 -5.066406 1.523438 -5.050781 1.640625 -5 C 1.671875 -4.988281 1.707031 -4.976562 1.75 -4.96875 C 1.832031 -4.976562 1.914062 -5.003906 2 -5.046875 C 2.019531 -5.066406 2.050781 -5.082031 2.09375 -5.09375 C 2.257812 -5.15625 2.441406 -5.179688 2.640625 -5.171875 C 2.710938 -5.171875 2.789062 -5.171875 2.875 -5.171875 C 3.175781 -5.128906 3.40625 -5.003906 3.5625 -4.796875 C 3.71875 -4.585938 3.773438 -4.332031 3.734375 -4.03125 C 3.703125 -3.84375 3.644531 -3.671875 3.5625 -3.515625 C 2.96875 -2.441406 2.207031 -1.882812 1.28125 -1.84375 Z M 2.46875 -4.625 C 2.050781 -4.644531 1.679688 -4.523438 1.359375 -4.265625 C 1.046875 -4.015625 0.8125 -3.726562 0.65625 -3.40625 C 0.5 -3.082031 0.457031 -2.8125 0.53125 -2.59375 C 0.601562 -2.382812 0.820312 -2.328125 1.1875 -2.421875 C 1.59375 -2.546875 1.953125 -2.78125 2.265625 -3.125 C 2.578125 -3.46875 2.769531 -3.789062 2.84375 -4.09375 C 2.914062 -4.40625 2.789062 -4.582031 2.46875 -4.625 Z M 2.46875 -4.625 "/>
</g></g></g><g fill="#000000" fill-opacity="1">
<g transform="translate(38.013819, 24.234156)"><g>
<path d="M 4.859375 -3.75 C 4.160156 -2.9375 3.476562 -2.332031 2.8125 -1.9375 C 2.144531 -1.550781 1.429688 -1.421875 0.671875 -1.546875 C -0.078125 -1.679688 -0.382812 -2.195312 -0.25 -3.09375 C -0.15625 -3.53125 -0.03125 -3.960938 0.125 -4.390625 C 0.519531 -5.378906 0.925781 -6.363281 1.34375 -7.34375 C 1.476562 -7.695312 1.617188 -8.050781 1.765625 -8.40625 C 1.796875 -8.488281 1.828125 -8.566406 1.859375 -8.640625 C 1.921875 -8.773438 1.976562 -8.910156 2.03125 -9.046875 C 2.113281 -9.273438 2.023438 -9.394531 1.765625 -9.40625 C 1.617188 -9.40625 1.472656 -9.40625 1.328125 -9.40625 C 1.253906 -9.40625 1.175781 -9.40625 1.09375 -9.40625 C 1.019531 -9.394531 0.941406 -9.382812 0.859375 -9.375 C 0.722656 -9.363281 0.585938 -9.359375 0.453125 -9.359375 C 0.316406 -9.359375 0.191406 -9.390625 0.078125 -9.453125 C 0.046875 -9.460938 0.0195312 -9.476562 0 -9.5 C -0.0078125 -9.53125 -0.015625 -9.566406 -0.015625 -9.609375 C -0.00390625 -9.628906 0.0078125 -9.648438 0.03125 -9.671875 C 0.0507812 -9.703125 0.0820312 -9.722656 0.125 -9.734375 C 0.238281 -9.785156 0.359375 -9.820312 0.484375 -9.84375 C 0.804688 -9.851562 1.125 -9.863281 1.4375 -9.875 C 1.5625 -9.875 1.671875 -9.875 1.765625 -9.875 C 1.972656 -9.875 2.125 -9.878906 2.21875 -9.890625 C 2.320312 -9.910156 2.40625 -9.96875 2.46875 -10.0625 C 2.53125 -10.15625 2.601562 -10.300781 2.6875 -10.5 C 2.738281 -10.601562 2.796875 -10.71875 2.859375 -10.84375 C 3.035156 -11.195312 3.207031 -11.566406 3.375 -11.953125 C 3.445312 -12.117188 3.523438 -12.285156 3.609375 -12.453125 C 3.679688 -12.609375 3.789062 -12.726562 3.9375 -12.8125 C 4.070312 -12.882812 4.191406 -12.878906 4.296875 -12.796875 C 4.328125 -12.773438 4.351562 -12.742188 4.375 -12.703125 C 4.394531 -12.660156 4.40625 -12.617188 4.40625 -12.578125 C 4.40625 -12.378906 4.351562 -12.179688 4.25 -11.984375 C 4.226562 -11.941406 4.203125 -11.890625 4.171875 -11.828125 C 4.109375 -11.640625 4.035156 -11.453125 3.953125 -11.265625 C 3.804688 -10.910156 3.664062 -10.550781 3.53125 -10.1875 C 3.488281 -10.113281 3.484375 -10.050781 3.515625 -10 C 3.554688 -9.945312 3.609375 -9.921875 3.671875 -9.921875 C 4.046875 -9.910156 4.410156 -9.90625 4.765625 -9.90625 C 4.941406 -9.90625 5.117188 -9.90625 5.296875 -9.90625 C 5.867188 -9.894531 6.097656 -9.816406 5.984375 -9.671875 C 5.910156 -9.585938 5.828125 -9.535156 5.734375 -9.515625 C 5.640625 -9.503906 5.546875 -9.507812 5.453125 -9.53125 C 5.398438 -9.53125 5.34375 -9.53125 5.28125 -9.53125 C 4.707031 -9.488281 4.132812 -9.460938 3.5625 -9.453125 C 3.300781 -9.453125 3.125 -9.332031 3.03125 -9.09375 C 2.9375 -8.863281 2.847656 -8.632812 2.765625 -8.40625 C 2.628906 -8.113281 2.503906 -7.820312 2.390625 -7.53125 C 2.273438 -7.257812 2.160156 -6.988281 2.046875 -6.71875 C 1.753906 -6.019531 1.472656 -5.320312 1.203125 -4.625 C 1.023438 -4.164062 0.890625 -3.695312 0.796875 -3.21875 C 0.578125 -2.351562 0.910156 -2.023438 1.796875 -2.234375 C 2.671875 -2.441406 3.582031 -3.066406 4.53125 -4.109375 C 4.945312 -4.378906 5.054688 -4.257812 4.859375 -3.75 Z M 4.859375 -3.75 "/></g></g></g><g fill="#000000" fill-opacity="1"><g transform="translate(42.42694, 24.234156)"><g>
<path d="M 3.71875 -4.765625 C 3.675781 -4.410156 3.507812 -4.175781 3.21875 -4.0625 C 2.9375 -3.957031 2.84375 -4.101562 2.9375 -4.5 C 3.039062 -4.894531 2.863281 -4.992188 2.40625 -4.796875 C 1.945312 -4.609375 1.570312 -4.363281 1.28125 -4.0625 C 0.820312 -3.59375 0.414062 -3.09375 0.0625 -2.5625 C 0.03125 -2.507812 0.00390625 -2.46875 -0.015625 -2.4375 C -0.117188 -2.289062 -0.222656 -2.148438 -0.328125 -2.015625 C -0.390625 -1.921875 -0.46875 -1.859375 -0.5625 -1.828125 C -0.65625 -1.804688 -0.75 -1.804688 -0.84375 -1.828125 C -0.925781 -1.835938 -0.988281 -1.867188 -1.03125 -1.921875 C -1.082031 -1.984375 -1.09375 -2.050781 -1.0625 -2.125 C -1 -2.269531 -0.929688 -2.414062 -0.859375 -2.5625 C -0.390625 -3.425781 0.0820312 -4.289062 0.5625 -5.15625 C 0.570312 -5.164062 0.578125 -5.175781 0.578125 -5.1875 C 0.648438 -5.320312 0.734375 -5.445312 0.828125 -5.5625 C 0.929688 -5.675781 1.050781 -5.722656 1.1875 -5.703125 C 1.320312 -5.679688 1.410156 -5.601562 1.453125 -5.46875 C 1.515625 -5.28125 1.5625 -5.175781 1.59375 -5.15625 C 1.632812 -5.132812 1.726562 -5.148438 1.875 -5.203125 C 2.1875 -5.316406 2.488281 -5.394531 2.78125 -5.4375 C 3.082031 -5.488281 3.328125 -5.476562 3.515625 -5.40625 C 3.703125 -5.34375 3.769531 -5.128906 3.71875 -4.765625 Z M 3.71875 -4.765625 "/></g></g></g><g fill="#000000" fill-opacity="1">
<g transform="translate(46.31173, 24.234156)"><g/></g></g><g fill="#000000" fill-opacity="1">
<g transform="translate(52.185532, 24.234156)"><g><path d="M 39.75 -21.859375 C 39.9375 -21.742188 40.054688 -21.585938 40.109375 -21.390625 C 40.160156 -21.203125 40.128906 -21.015625 40.015625 -20.828125 C 39.847656 -20.554688 39.640625 -20.304688 39.390625 -20.078125 C 38.890625 -19.609375 38.335938 -19.1875 37.734375 -18.8125 C 34.679688 -16.8125 31.390625 -15.296875 27.859375 -14.265625 C 27.703125 -14.210938 27.539062 -14.160156 27.375 -14.109375 C 27.144531 -14.023438 26.90625 -13.953125 26.65625 -13.890625 C 26.582031 -13.859375 26.515625 -13.863281 26.453125 -13.90625 C 26.398438 -13.945312 26.367188 -14.007812 26.359375 -14.09375 C 26.359375 -14.125 26.367188 -14.164062 26.390625 -14.21875 C 26.421875 -14.269531 26.457031 -14.300781 26.5 -14.3125 C 26.789062 -14.4375 27.097656 -14.550781 27.421875 -14.65625 C 30.953125 -15.820312 34.265625 -17.453125 37.359375 -19.546875 C 37.734375 -19.816406 38.097656 -20.101562 38.453125 -20.40625 C 38.492188 -20.445312 38.546875 -20.484375 38.609375 -20.515625 C 38.785156 -20.660156 38.914062 -20.847656 39 -21.078125 C 39.039062 -21.210938 39 -21.328125 38.875 -21.421875 C 38.738281 -21.515625 38.582031 -21.566406 38.40625 -21.578125 C 38.375 -21.578125 38.34375 -21.582031 38.3125 -21.59375 C 37.632812 -21.707031 36.957031 -21.765625 36.28125 -21.765625 C 35.601562 -21.765625 34.929688 -21.738281 34.265625 -21.6875 C 32.734375 -21.53125 31.207031 -21.320312 29.6875 -21.0625 C 28.175781 -20.800781 26.664062 -20.507812 25.15625 -20.1875 C 20.6875 -19.25 16.289062 -18.050781 11.96875 -16.59375 C 10.425781 -16.082031 8.898438 -15.535156 7.390625 -14.953125 C 5.878906 -14.378906 4.390625 -13.742188 2.921875 -13.046875 C 2.523438 -12.847656 2.125 -12.65625 1.71875 -12.46875 C 1.507812 -12.351562 1.289062 -12.238281 1.0625 -12.125 C 1.03125 -12.113281 1.003906 -12.09375 0.984375 -12.0625 C 0.828125 -11.988281 0.671875 -11.925781 0.515625 -11.875 C 0.429688 -11.84375 0.347656 -11.828125 0.265625 -11.828125 C 0.179688 -11.835938 0.113281 -11.878906 0.0625 -11.953125 C 0.0195312 -12.046875 0.0195312 -12.125 0.0625 -12.1875 C 0.113281 -12.257812 0.175781 -12.316406 0.25 -12.359375 C 0.257812 -12.367188 0.28125 -12.378906 0.3125 -12.390625 C 0.6875 -12.609375 1.070312 -12.820312 1.46875 -13.03125 C 2.75 -13.675781 4.050781 -14.269531 5.375 -14.8125 C 6.707031 -15.363281 8.050781 -15.878906 9.40625 -16.359375 C 14.863281 -18.304688 20.4375 -19.851562 26.125 -21 C 27.488281 -21.269531 28.851562 -21.519531 30.21875 -21.75 C 31.59375 -21.976562 32.972656 -22.148438 34.359375 -22.265625 C 34.765625 -22.285156 35.171875 -22.304688 35.578125 -22.328125 C 35.753906 -22.335938 35.941406 -22.347656 36.140625 -22.359375 C 36.992188 -22.359375 37.847656 -22.300781 38.703125 -22.1875 C 39.066406 -22.132812 39.414062 -22.023438 39.75 -21.859375 Z M 18.609375 -5.9375 C 18.691406 -5.914062 18.765625 -5.882812 18.828125 -5.84375 C 18.898438 -5.8125 18.953125 -5.769531 18.984375 -5.71875 C 19.023438 -5.675781 19.03125 -5.632812 19 -5.59375 C 18.945312 -5.519531 18.882812 -5.476562 18.8125 -5.46875 C 18.738281 -5.457031 18.664062 -5.453125 18.59375 -5.453125 C 18.582031 -5.453125 18.570312 -5.453125 18.5625 -5.453125 C 17.34375 -5.453125 16.113281 -5.394531 14.875 -5.28125 C 14.226562 -5.21875 13.570312 -5.171875 12.90625 -5.140625 C 12.695312 -5.128906 12.550781 -5.015625 12.46875 -4.796875 C 12.40625 -4.628906 12.332031 -4.457031 12.25 -4.28125 C 12.207031 -4.1875 12.164062 -4.085938 12.125 -3.984375 C 11.96875 -3.609375 11.816406 -3.25 11.671875 -2.90625 C 10.410156 0.144531 9.101562 3.179688 7.75 6.203125 C 7.363281 7.035156 6.953125 7.851562 6.515625 8.65625 C 6.515625 8.664062 6.507812 8.675781 6.5 8.6875 C 6.363281 8.957031 6.191406 9.210938 5.984375 9.453125 C 5.804688 9.660156 5.566406 9.734375 5.265625 9.671875 C 5.179688 9.640625 5.109375 9.597656 5.046875 9.546875 C 4.992188 9.492188 4.96875 9.421875 4.96875 9.328125 C 4.988281 9.128906 5.023438 8.9375 5.078125 8.75 C 5.117188 8.613281 5.164062 8.46875 5.21875 8.3125 C 5.445312 7.570312 5.6875 6.832031 5.9375 6.09375 C 7.082031 2.820312 8.410156 -0.367188 9.921875 -3.484375 C 10.054688 -3.773438 10.222656 -4.066406 10.421875 -4.359375 C 10.460938 -4.421875 10.523438 -4.457031 10.609375 -4.46875 C 10.703125 -4.488281 10.785156 -4.484375 10.859375 -4.453125 C 11.003906 -4.410156 11.054688 -4.300781 11.015625 -4.125 C 10.984375 -3.957031 10.910156 -3.757812 10.796875 -3.53125 C 10.691406 -3.3125 10.585938 -3.117188 10.484375 -2.953125 C 10.398438 -2.816406 10.34375 -2.710938 10.3125 -2.640625 C 8.75 0.722656 7.878906 2.679688 7.703125 3.234375 C 7.628906 3.429688 7.59375 3.5625 7.59375 3.625 C 7.59375 3.695312 7.613281 3.726562 7.65625 3.71875 C 7.707031 3.707031 7.757812 3.675781 7.8125 3.625 C 7.875 3.570312 7.925781 3.515625 7.96875 3.453125 C 8.019531 3.398438 8.054688 3.363281 8.078125 3.34375 C 8.140625 3.175781 8.210938 3 8.296875 2.8125 C 8.546875 2.226562 8.796875 1.644531 9.046875 1.0625 C 9.128906 0.894531 9.207031 0.722656 9.28125 0.546875 C 9.8125 -0.710938 10.335938 -1.972656 10.859375 -3.234375 C 10.890625 -3.285156 10.925781 -3.359375 10.96875 -3.453125 C 11.0625 -3.628906 11.15625 -3.835938 11.25 -4.078125 C 11.351562 -4.328125 11.421875 -4.546875 11.453125 -4.734375 C 11.484375 -4.929688 11.429688 -5.035156 11.296875 -5.046875 C 11.046875 -5.046875 10.785156 -5.046875 10.515625 -5.046875 C 10.347656 -5.046875 10.175781 -5.046875 10 -5.046875 C 9.851562 -5.046875 9.703125 -5.046875 9.546875 -5.046875 C 9.046875 -5.046875 8.539062 -5.054688 8.03125 -5.078125 C 7.90625 -5.085938 7.785156 -5.117188 7.671875 -5.171875 C 7.660156 -5.179688 7.648438 -5.203125 7.640625 -5.234375 C 7.628906 -5.265625 7.617188 -5.296875 7.609375 -5.328125 C 7.609375 -5.335938 7.609375 -5.347656 7.609375 -5.359375 C 7.609375 -5.367188 7.613281 -5.378906 7.625 -5.390625 C 7.644531 -5.410156 7.660156 -5.425781 7.671875 -5.4375 C 7.734375 -5.476562 7.796875 -5.503906 7.859375 -5.515625 C 7.929688 -5.523438 8.003906 -5.53125 8.078125 -5.53125 C 8.097656 -5.53125 8.117188 -5.53125 8.140625 -5.53125 C 8.421875 -5.539062 8.707031 -5.550781 9 -5.5625 C 9.738281 -5.613281 10.476562 -5.644531 11.21875 -5.65625 C 11.46875 -5.65625 11.664062 -5.707031 11.8125 -5.8125 C 11.957031 -5.925781 12.066406 -6.097656 12.140625 -6.328125 C 12.515625 -7.273438 12.882812 -8.21875 13.25 -9.15625 C 13.65625 -10.164062 14.050781 -11.171875 14.4375 -12.171875 C 14.726562 -12.941406 15.007812 -13.71875 15.28125 -14.5 C 15.425781 -14.90625 15.570312 -15.320312 15.71875 -15.75 C 15.71875 -15.757812 15.722656 -15.769531 15.734375 -15.78125 C 15.796875 -15.957031 15.867188 -16.125 15.953125 -16.28125 C 16.015625 -16.351562 16.082031 -16.390625 16.15625 -16.390625 C 16.238281 -16.398438 16.328125 -16.394531 16.421875 -16.375 C 16.484375 -16.34375 16.535156 -16.300781 16.578125 -16.25 C 16.617188 -16.195312 16.632812 -16.132812 16.625 -16.0625 C 16.59375 -15.8125 16.539062 -15.554688 16.46875 -15.296875 C 16.09375 -14.054688 15.664062 -12.835938 15.1875 -11.640625 C 15.164062 -11.609375 15.148438 -11.570312 15.140625 -11.53125 C 14.703125 -10.40625 14.257812 -9.285156 13.8125 -8.171875 C 13.601562 -7.660156 13.394531 -7.144531 13.1875 -6.625 C 13.1875 -6.613281 13.1875 -6.609375 13.1875 -6.609375 C 13.125 -6.460938 13.066406 -6.3125 13.015625 -6.15625 C 12.953125 -6.007812 12.945312 -5.898438 13 -5.828125 C 13.050781 -5.765625 13.164062 -5.734375 13.34375 -5.734375 C 13.570312 -5.734375 13.800781 -5.75 14.03125 -5.78125 C 14.132812 -5.78125 14.234375 -5.78125 14.328125 -5.78125 C 14.347656 -5.78125 14.363281 -5.785156 14.375 -5.796875 C 15.6875 -5.835938 16.992188 -5.882812 18.296875 -5.9375 C 18.398438 -5.945312 18.503906 -5.945312 18.609375 -5.9375 Z M 18.609375 -5.9375 "/></g></g></g><g fill="#000000" fill-opacity="1">
<g transform="translate(71.469627, 24.234156)"><g><path d="M 3.71875 -4.765625 C 3.675781 -4.410156 3.507812 -4.175781 3.21875 -4.0625 C 2.9375 -3.957031 2.84375 -4.101562 2.9375 -4.5 C 3.039062 -4.894531 2.863281 -4.992188 2.40625 -4.796875 C 1.945312 -4.609375 1.570312 -4.363281 1.28125 -4.0625 C 0.820312 -3.59375 0.414062 -3.09375 0.0625 -2.5625 C 0.03125 -2.507812 0.00390625 -2.46875 -0.015625 -2.4375 C -0.117188 -2.289062 -0.222656 -2.148438 -0.328125 -2.015625 C -0.390625 -1.921875 -0.46875 -1.859375 -0.5625 -1.828125 C -0.65625 -1.804688 -0.75 -1.804688 -0.84375 -1.828125 C -0.925781 -1.835938 -0.988281 -1.867188 -1.03125 -1.921875 C -1.082031 -1.984375 -1.09375 -2.050781 -1.0625 -2.125 C -1 -2.269531 -0.929688 -2.414062 -0.859375 -2.5625 C -0.390625 -3.425781 0.0820312 -4.289062 0.5625 -5.15625 C 0.570312 -5.164062 0.578125 -5.175781 0.578125 -5.1875 C 0.648438 -5.320312 0.734375 -5.445312 0.828125 -5.5625 C 0.929688 -5.675781 1.050781 -5.722656 1.1875 -5.703125 C 1.320312 -5.679688 1.410156 -5.601562 1.453125 -5.46875 C 1.515625 -5.28125 1.5625 -5.175781 1.59375 -5.15625 C 1.632812 -5.132812 1.726562 -5.148438 1.875 -5.203125 C 2.1875 -5.316406 2.488281 -5.394531 2.78125 -5.4375 C 3.082031 -5.488281 3.328125 -5.476562 3.515625 -5.40625 C 3.703125 -5.34375 3.769531 -5.128906 3.71875 -4.765625 Z M 3.71875 -4.765625 "/></g></g></g><g fill="#000000" fill-opacity="1"><g transform="translate(75.354417, 24.234156)"><g><path d="M 5.640625 -3.953125 C 5.765625 -3.890625 5.773438 -3.722656 5.671875 -3.453125 C 5.515625 -3.253906 5.347656 -3.066406 5.171875 -2.890625 C 5.003906 -2.722656 4.820312 -2.570312 4.625 -2.4375 C 4.613281 -2.4375 4.609375 -2.429688 4.609375 -2.421875 C 4.472656 -2.328125 4.328125 -2.25 4.171875 -2.1875 C 2.929688 -1.738281 2.300781 -2 2.28125 -2.96875 C 1.78125 -2.53125 1.441406 -2.265625 1.265625 -2.171875 C 0.859375 -1.921875 0.414062 -1.8125 -0.0625 -1.84375 C -0.414062 -1.863281 -0.65625 -1.96875 -0.78125 -2.15625 C -0.90625 -2.351562 -0.894531 -2.617188 -0.75 -2.953125 C -0.519531 -3.472656 -0.195312 -3.941406 0.21875 -4.359375 C 0.71875 -4.804688 1.265625 -5.171875 1.859375 -5.453125 C 2.179688 -5.609375 2.519531 -5.671875 2.875 -5.640625 C 3.226562 -5.617188 3.441406 -5.414062 3.515625 -5.03125 C 3.546875 -4.914062 3.515625 -4.816406 3.421875 -4.734375 C 3.304688 -4.628906 3.175781 -4.609375 3.03125 -4.671875 C 3.019531 -4.671875 3.003906 -4.671875 2.984375 -4.671875 C 2.972656 -4.679688 2.960938 -4.691406 2.953125 -4.703125 C 2.796875 -4.898438 2.640625 -4.984375 2.484375 -4.953125 C 2.335938 -4.921875 2.175781 -4.851562 2 -4.75 C 1.207031 -4.28125 0.613281 -3.628906 0.21875 -2.796875 C 0.195312 -2.765625 0.179688 -2.722656 0.171875 -2.671875 C 0.171875 -2.628906 0.1875 -2.597656 0.21875 -2.578125 C 0.3125 -2.546875 0.414062 -2.550781 0.53125 -2.59375 C 0.644531 -2.632812 0.757812 -2.695312 0.875 -2.78125 C 0.988281 -2.875 1.085938 -2.945312 1.171875 -3 C 1.179688 -3.019531 1.1875 -3.03125 1.1875 -3.03125 C 1.5625 -3.34375 1.929688 -3.664062 2.296875 -4 C 2.453125 -4.164062 2.648438 -4.257812 2.890625 -4.28125 C 3.234375 -4.28125 3.375 -4.128906 3.3125 -3.828125 C 3.28125 -3.710938 3.25 -3.597656 3.21875 -3.484375 C 3.082031 -2.992188 3.078125 -2.703125 3.203125 -2.609375 C 3.328125 -2.523438 3.515625 -2.523438 3.765625 -2.609375 C 4.023438 -2.703125 4.28125 -2.867188 4.53125 -3.109375 C 4.789062 -3.347656 5.007812 -3.566406 5.1875 -3.765625 C 5.363281 -3.960938 5.515625 -4.023438 5.640625 -3.953125 Z M 5.640625 -3.953125 "/></g></g></g><g fill="#000000" fill-opacity="1">
<g transform="translate(80.505648, 24.234156)"><g><path d="M 3.765625 -3.9375 C 2.941406 -3.632812 2.347656 -3.382812 1.984375 -3.1875 C 1.722656 -3.0625 1.570312 -2.957031 1.53125 -2.875 C 1.5 -2.789062 1.53125 -2.632812 1.625 -2.40625 C 1.625 -2.394531 1.628906 -2.378906 1.640625 -2.359375 C 1.753906 -2.078125 1.820312 -1.789062 1.84375 -1.5 C 1.882812 -0.90625 1.378906 -0.488281 0.328125 -0.25 C -0.722656 -0.0078125 -1.425781 0 -1.78125 -0.21875 C -2.132812 -0.445312 -2.238281 -0.734375 -2.09375 -1.078125 C -1.957031 -1.421875 -1.601562 -1.765625 -1.03125 -2.109375 C -0.457031 -2.460938 -0.078125 -2.71875 0.109375 -2.875 C 0.304688 -3.03125 0.367188 -3.203125 0.296875 -3.390625 C 0.265625 -3.460938 0.234375 -3.53125 0.203125 -3.59375 C 0.140625 -3.757812 0.0703125 -3.925781 0 -4.09375 C -0.132812 -4.40625 -0.191406 -4.710938 -0.171875 -5.015625 C -0.148438 -5.316406 -0.0390625 -5.566406 0.15625 -5.765625 C 0.363281 -5.972656 0.679688 -6.085938 1.109375 -6.109375 C 1.359375 -6.117188 1.578125 -6.082031 1.765625 -6 C 1.953125 -5.925781 2.101562 -5.789062 2.21875 -5.59375 C 2.3125 -5.445312 2.285156 -5.316406 2.140625 -5.203125 C 2.035156 -5.128906 1.925781 -5.117188 1.8125 -5.171875 C 1.738281 -5.203125 1.671875 -5.25 1.609375 -5.3125 C 1.609375 -5.320312 1.609375 -5.328125 1.609375 -5.328125 C 1.578125 -5.347656 1.550781 -5.367188 1.53125 -5.390625 C 1.5 -5.441406 1.460938 -5.476562 1.421875 -5.5 C 1.285156 -5.601562 1.148438 -5.632812 1.015625 -5.59375 C 0.878906 -5.550781 0.773438 -5.445312 0.703125 -5.28125 C 0.660156 -5.144531 0.640625 -5.003906 0.640625 -4.859375 C 0.648438 -4.691406 0.6875 -4.53125 0.75 -4.375 C 0.800781 -4.269531 0.84375 -4.175781 0.875 -4.09375 C 0.96875 -3.863281 1.039062 -3.707031 1.09375 -3.625 C 1.15625 -3.539062 1.222656 -3.503906 1.296875 -3.515625 C 1.378906 -3.523438 2.113281 -3.789062 3.5 -4.3125 C 3.800781 -4.40625 3.890625 -4.28125 3.765625 -3.9375 Z M 0.390625 -0.96875 C 0.753906 -1.09375 0.910156 -1.335938 0.859375 -1.703125 C 0.859375 -1.722656 0.851562 -1.75 0.84375 -1.78125 C 0.820312 -1.976562 0.78125 -2.128906 0.71875 -2.234375 C 0.65625 -2.347656 0.515625 -2.347656 0.296875 -2.234375 C -0.242188 -1.921875 -0.742188 -1.5625 -1.203125 -1.15625 C -1.234375 -1.125 -1.257812 -1.09375 -1.28125 -1.0625 C -1.28125 -1.0625 -1.285156 -1.050781 -1.296875 -1.03125 C -1.328125 -0.988281 -1.332031 -0.941406 -1.3125 -0.890625 C -1.289062 -0.835938 -1.242188 -0.8125 -1.171875 -0.8125 C -0.640625 -0.726562 -0.117188 -0.78125 0.390625 -0.96875 Z M 0.390625 -0.96875 "/></g></g></g><g fill="#000000" fill-opacity="1"><g transform="translate(83.947572, 24.234156)"><g><path d="M 1.15625 -3.109375 C 0.96875 -2.972656 0.875 -2.875 0.875 -2.8125 C 0.875 -2.757812 0.9375 -2.726562 1.0625 -2.71875 C 1.1875 -2.707031 1.320312 -2.703125 1.46875 -2.703125 C 1.519531 -2.710938 1.5625 -2.71875 1.59375 -2.71875 C 2.082031 -2.707031 2.554688 -2.640625 3.015625 -2.515625 C 3.140625 -2.460938 3.269531 -2.394531 3.40625 -2.3125 C 3.414062 -2.300781 3.421875 -2.296875 3.421875 -2.296875 C 3.441406 -2.285156 3.457031 -2.265625 3.46875 -2.234375 C 3.476562 -2.203125 3.476562 -2.171875 3.46875 -2.140625 C 3.46875 -2.117188 3.453125 -2.097656 3.421875 -2.078125 C 3.390625 -2.066406 3.363281 -2.054688 3.34375 -2.046875 C 3.25 -2.023438 3.160156 -2.019531 3.078125 -2.03125 C 2.117188 -2.144531 1.160156 -2.195312 0.203125 -2.1875 C 0.0234375 -2.1875 -0.160156 -2.1875 -0.359375 -2.1875 C -0.410156 -2.1875 -0.472656 -2.179688 -0.546875 -2.171875 C -0.679688 -2.148438 -0.804688 -2.148438 -0.921875 -2.171875 C -1.035156 -2.203125 -1.113281 -2.289062 -1.15625 -2.4375 C -1.175781 -2.550781 -1.144531 -2.632812 -1.0625 -2.6875 C -0.976562 -2.738281 -0.878906 -2.78125 -0.765625 -2.8125 C -0.691406 -2.84375 -0.617188 -2.878906 -0.546875 -2.921875 C 0.265625 -3.367188 1.046875 -3.867188 1.796875 -4.421875 C 2.097656 -4.640625 2.363281 -4.890625 2.59375 -5.171875 C 2.664062 -5.265625 2.679688 -5.347656 2.640625 -5.421875 C 2.597656 -5.492188 2.519531 -5.535156 2.40625 -5.546875 C 2.050781 -5.585938 1.710938 -5.5625 1.390625 -5.46875 C 1.378906 -5.46875 1.375 -5.46875 1.375 -5.46875 C 1.132812 -5.394531 0.882812 -5.332031 0.625 -5.28125 C 0.5 -5.257812 0.390625 -5.296875 0.296875 -5.390625 C 0.265625 -5.453125 0.265625 -5.515625 0.296875 -5.578125 C 0.335938 -5.640625 0.410156 -5.691406 0.515625 -5.734375 C 1.253906 -6.046875 2.03125 -6.15625 2.84375 -6.0625 C 3.03125 -6.03125 3.207031 -5.972656 3.375 -5.890625 C 3.707031 -5.722656 3.789062 -5.476562 3.625 -5.15625 C 3.425781 -4.820312 3.160156 -4.53125 2.828125 -4.28125 C 2.378906 -3.957031 1.921875 -3.632812 1.453125 -3.3125 C 1.347656 -3.238281 1.25 -3.171875 1.15625 -3.109375 Z M 1.15625 -3.109375 "/></g></g></g>
<g fill="#000000" fill-opacity="1"><g transform="translate(87.824592, 24.234156)"><g><path d="M 5.609375 -4.046875 C 5.628906 -4.046875 5.65625 -4.039062 5.6875 -4.03125 C 5.726562 -4.019531 5.757812 -4.003906 5.78125 -3.984375 C 5.851562 -3.910156 5.859375 -3.828125 5.796875 -3.734375 C 5.722656 -3.660156 5.65625 -3.59375 5.59375 -3.53125 C 5.1875 -3.164062 4.742188 -2.859375 4.265625 -2.609375 C 3.492188 -2.222656 2.644531 -2.023438 1.71875 -2.015625 C 1.382812 -2.003906 1.035156 -2.0625 0.671875 -2.1875 C 0.00390625 -2.445312 -0.265625 -2.925781 -0.140625 -3.625 C 0.00390625 -4.269531 0.367188 -4.804688 0.953125 -5.234375 C 1.535156 -5.660156 2.160156 -5.847656 2.828125 -5.796875 C 2.953125 -5.773438 3.070312 -5.742188 3.1875 -5.703125 C 3.300781 -5.660156 3.382812 -5.59375 3.4375 -5.5 C 3.5 -5.40625 3.507812 -5.332031 3.46875 -5.28125 C 3.34375 -5.144531 3.203125 -5.109375 3.046875 -5.171875 C 2.804688 -5.273438 2.582031 -5.300781 2.375 -5.25 C 2.175781 -5.207031 1.976562 -5.101562 1.78125 -4.9375 C 1.582031 -4.789062 1.367188 -4.570312 1.140625 -4.28125 C 0.910156 -4 0.765625 -3.710938 0.703125 -3.421875 C 0.640625 -3.128906 0.769531 -2.894531 1.09375 -2.71875 C 1.457031 -2.550781 1.828125 -2.507812 2.203125 -2.59375 C 3.148438 -2.789062 4.023438 -3.148438 4.828125 -3.671875 C 4.898438 -3.703125 4.96875 -3.742188 5.03125 -3.796875 C 5.113281 -3.859375 5.203125 -3.910156 5.296875 -3.953125 C 5.390625 -4.003906 5.492188 -4.035156 5.609375 -4.046875 Z M 5.609375 -4.046875 "/></g></g></g><g fill="#000000" fill-opacity="1"><g transform="translate(93.006901, 24.234156)"><g><path d="M 1.15625 -3.109375 C 0.96875 -2.972656 0.875 -2.875 0.875 -2.8125 C 0.875 -2.757812 0.9375 -2.726562 1.0625 -2.71875 C 1.1875 -2.707031 1.320312 -2.703125 1.46875 -2.703125 C 1.519531 -2.710938 1.5625 -2.71875 1.59375 -2.71875 C 2.082031 -2.707031 2.554688 -2.640625 3.015625 -2.515625 C 3.140625 -2.460938 3.269531 -2.394531 3.40625 -2.3125 C 3.414062 -2.300781 3.421875 -2.296875 3.421875 -2.296875 C 3.441406 -2.285156 3.457031 -2.265625 3.46875 -2.234375 C 3.476562 -2.203125 3.476562 -2.171875 3.46875 -2.140625 C 3.46875 -2.117188 3.453125 -2.097656 3.421875 -2.078125 C 3.390625 -2.066406 3.363281 -2.054688 3.34375 -2.046875 C 3.25 -2.023438 3.160156 -2.019531 3.078125 -2.03125 C 2.117188 -2.144531 1.160156 -2.195312 0.203125 -2.1875 C 0.0234375 -2.1875 -0.160156 -2.1875 -0.359375 -2.1875 C -0.410156 -2.1875 -0.472656 -2.179688 -0.546875 -2.171875 C -0.679688 -2.148438 -0.804688 -2.148438 -0.921875 -2.171875 C -1.035156 -2.203125 -1.113281 -2.289062 -1.15625 -2.4375 C -1.175781 -2.550781 -1.144531 -2.632812 -1.0625 -2.6875 C -0.976562 -2.738281 -0.878906 -2.78125 -0.765625 -2.8125 C -0.691406 -2.84375 -0.617188 -2.878906 -0.546875 -2.921875 C 0.265625 -3.367188 1.046875 -3.867188 1.796875 -4.421875 C 2.097656 -4.640625 2.363281 -4.890625 2.59375 -5.171875 C 2.664062 -5.265625 2.679688 -5.347656 2.640625 -5.421875 C 2.597656 -5.492188 2.519531 -5.535156 2.40625 -5.546875 C 2.050781 -5.585938 1.710938 -5.5625 1.390625 -5.46875 C 1.378906 -5.46875 1.375 -5.46875 1.375 -5.46875 C 1.132812 -5.394531 0.882812 -5.332031 0.625 -5.28125 C 0.5 -5.257812 0.390625 -5.296875 0.296875 -5.390625 C 0.265625 -5.453125 0.265625 -5.515625 0.296875 -5.578125 C 0.335938 -5.640625 0.410156 -5.691406 0.515625 -5.734375 C 1.253906 -6.046875 2.03125 -6.15625 2.84375 -6.0625 C 3.03125 -6.03125 3.207031 -5.972656 3.375 -5.890625 C 3.707031 -5.722656 3.789062 -5.476562 3.625 -5.15625 C 3.425781 -4.820312 3.160156 -4.53125 2.828125 -4.28125 C 2.378906 -3.957031 1.921875 -3.632812 1.453125 -3.3125 C 1.347656 -3.238281 1.25 -3.171875 1.15625 -3.109375 Z M 1.15625 -3.109375 "/></g></g></g><g fill="#000000" fill-opacity="1"><g transform="translate(96.883922, 24.234156)"><g><path d="M 5.640625 -3.953125 C 5.765625 -3.890625 5.773438 -3.722656 5.671875 -3.453125 C 5.515625 -3.253906 5.347656 -3.066406 5.171875 -2.890625 C 5.003906 -2.722656 4.820312 -2.570312 4.625 -2.4375 C 4.613281 -2.4375 4.609375 -2.429688 4.609375 -2.421875 C 4.472656 -2.328125 4.328125 -2.25 4.171875 -2.1875 C 2.929688 -1.738281 2.300781 -2 2.28125 -2.96875 C 1.78125 -2.53125 1.441406 -2.265625 1.265625 -2.171875 C 0.859375 -1.921875 0.414062 -1.8125 -0.0625 -1.84375 C -0.414062 -1.863281 -0.65625 -1.96875 -0.78125 -2.15625 C -0.90625 -2.351562 -0.894531 -2.617188 -0.75 -2.953125 C -0.519531 -3.472656 -0.195312 -3.941406 0.21875 -4.359375 C 0.71875 -4.804688 1.265625 -5.171875 1.859375 -5.453125 C 2.179688 -5.609375 2.519531 -5.671875 2.875 -5.640625 C 3.226562 -5.617188 3.441406 -5.414062 3.515625 -5.03125 C 3.546875 -4.914062 3.515625 -4.816406 3.421875 -4.734375 C 3.304688 -4.628906 3.175781 -4.609375 3.03125 -4.671875 C 3.019531 -4.671875 3.003906 -4.671875 2.984375 -4.671875 C 2.972656 -4.679688 2.960938 -4.691406 2.953125 -4.703125 C 2.796875 -4.898438 2.640625 -4.984375 2.484375 -4.953125 C 2.335938 -4.921875 2.175781 -4.851562 2 -4.75 C 1.207031 -4.28125 0.613281 -3.628906 0.21875 -2.796875 C 0.195312 -2.765625 0.179688 -2.722656 0.171875 -2.671875 C 0.171875 -2.628906 0.1875 -2.597656 0.21875 -2.578125 C 0.3125 -2.546875 0.414062 -2.550781 0.53125 -2.59375 C 0.644531 -2.632812 0.757812 -2.695312 0.875 -2.78125 C 0.988281 -2.875 1.085938 -2.945312 1.171875 -3 C 1.179688 -3.019531 1.1875 -3.03125 1.1875 -3.03125 C 1.5625 -3.34375 1.929688 -3.664062 2.296875 -4 C 2.453125 -4.164062 2.648438 -4.257812 2.890625 -4.28125 C 3.234375 -4.28125 3.375 -4.128906 3.3125 -3.828125 C 3.28125 -3.710938 3.25 -3.597656 3.21875 -3.484375 C 3.082031 -2.992188 3.078125 -2.703125 3.203125 -2.609375 C 3.328125 -2.523438 3.515625 -2.523438 3.765625 -2.609375 C 4.023438 -2.703125 4.28125 -2.867188 4.53125 -3.109375 C 4.789062 -3.347656 5.007812 -3.566406 5.1875 -3.765625 C 5.363281 -3.960938 5.515625 -4.023438 5.640625 -3.953125 Z M 5.640625 -3.953125 "/></g></g></g>
<g fill="#000000" fill-opacity="1"><g transform="translate(102.035153, 24.234156)"><g><path d="M 6.03125 -3.96875 C 6.070312 -3.90625 6.082031 -3.84375 6.0625 -3.78125 C 6.039062 -3.726562 6 -3.679688 5.9375 -3.640625 C 5.582031 -3.316406 5.1875 -3.0625 4.75 -2.875 C 3.988281 -2.519531 3.191406 -2.300781 2.359375 -2.21875 C 1.710938 -2.144531 1.09375 -2.242188 0.5 -2.515625 C 0.28125 -2.609375 0.117188 -2.554688 0.015625 -2.359375 C -0.128906 -2.066406 -0.28125 -1.78125 -0.4375 -1.5 C -0.519531 -1.34375 -0.609375 -1.175781 -0.703125 -1 C -0.710938 -0.976562 -0.722656 -0.957031 -0.734375 -0.9375 C -0.765625 -0.875 -0.796875 -0.816406 -0.828125 -0.765625 C -0.867188 -0.710938 -0.929688 -0.675781 -1.015625 -0.65625 C -1.054688 -0.644531 -1.097656 -0.640625 -1.140625 -0.640625 C -1.191406 -0.640625 -1.234375 -0.648438 -1.265625 -0.671875 C -1.296875 -0.703125 -1.320312 -0.738281 -1.34375 -0.78125 C -1.375 -0.820312 -1.390625 -0.867188 -1.390625 -0.921875 C -1.347656 -1.066406 -1.296875 -1.210938 -1.234375 -1.359375 C -1.085938 -1.691406 -0.941406 -2.019531 -0.796875 -2.34375 C -0.441406 -3.15625 -0.0703125 -3.960938 0.3125 -4.765625 C 1.382812 -6.960938 2.40625 -9.1875 3.375 -11.4375 C 3.445312 -11.65625 3.550781 -11.847656 3.6875 -12.015625 C 3.789062 -12.140625 3.9375 -12.175781 4.125 -12.125 C 4.3125 -12.039062 4.367188 -11.90625 4.296875 -11.71875 C 4.171875 -11.332031 4.035156 -10.945312 3.890625 -10.5625 C 3.171875 -8.789062 2.382812 -7.046875 1.53125 -5.328125 C 1.34375 -4.960938 1.273438 -4.734375 1.328125 -4.640625 C 1.378906 -4.546875 1.5 -4.535156 1.6875 -4.609375 C 1.882812 -4.691406 2.109375 -4.800781 2.359375 -4.9375 C 2.546875 -5.039062 2.726562 -5.128906 2.90625 -5.203125 C 2.945312 -5.234375 2.984375 -5.253906 3.015625 -5.265625 C 3.222656 -5.390625 3.457031 -5.457031 3.71875 -5.46875 C 3.8125 -5.46875 3.882812 -5.421875 3.9375 -5.328125 C 3.957031 -5.273438 3.957031 -5.226562 3.9375 -5.1875 C 3.914062 -5.144531 3.882812 -5.113281 3.84375 -5.09375 C 3.457031 -4.863281 3.066406 -4.644531 2.671875 -4.4375 C 2.472656 -4.351562 2.269531 -4.257812 2.0625 -4.15625 C 1.863281 -4.0625 1.664062 -3.960938 1.46875 -3.859375 C 1.332031 -3.773438 1.207031 -3.679688 1.09375 -3.578125 C 0.832031 -3.304688 0.863281 -3.082031 1.1875 -2.90625 C 1.445312 -2.789062 1.707031 -2.726562 1.96875 -2.71875 C 2.238281 -2.71875 2.507812 -2.75 2.78125 -2.8125 C 3.59375 -3 4.359375 -3.296875 5.078125 -3.703125 C 5.140625 -3.734375 5.195312 -3.765625 5.25 -3.796875 C 5.382812 -3.878906 5.53125 -3.957031 5.6875 -4.03125 C 5.738281 -4.050781 5.796875 -4.054688 5.859375 -4.046875 C 5.929688 -4.046875 5.988281 -4.019531 6.03125 -3.96875 Z M 6.03125 -3.96875 "/></g></g></g></svg>